<svg height="512" viewBox="0 0 64 64" width="512" xmlns="http://www.w3.org/2000/svg"><g id="movie-cinema-TV-watch-relax"><path d="m17 41v1h12v-1a1 1 0 0 0 -1-1h-10a1 1 0 0 0 -1 1z"/><path d="m53 44h-42a1 1 0 0 0 -1 1v13h44v-13a1 1 0 0 0 -1-1z"/><path d="m35 41v1h12v-1a1 1 0 0 0 -1-1h-10a1 1 0 0 0 -1 1z"/><path d="m59 49h-3v11h4v-10a1 1 0 0 0 -1-1z"/><circle cx="23" cy="33" r="5"/><circle cx="41" cy="33" r="5"/><path d="m4 50v10h4v-11h-3a1 1 0 0 0 -1 1z"/><path d="m29 21.38 8.76-4.38-8.76-4.38z"/><path d="m59 4h-54a1 1 0 0 0 -1 1v28a1 1 0 0 0 1 1h11.08a6.634 6.634 0 0 1 -.08-1 7 7 0 0 1 14 0 6.634 6.634 0 0 1 -.08 1h4.16a6.634 6.634 0 0 1 -.08-1 7 7 0 0 1 14 0 6.634 6.634 0 0 1 -.08 1h11.08a1 1 0 0 0 1-1v-28a1 1 0 0 0 -1-1zm-53.121 5.536 3.656-3.657 1.414 1.414-3.656 3.657zm4.414 4.414-1.414-1.414 3.656-3.657 1.414 1.414zm30.157 3.94-12 6a1.03 1.03 0 0 1 -.45.11 1.014 1.014 0 0 1 -.53-.15 1 1 0 0 1 -.47-.85v-12a1 1 0 0 1 1.45-.89l12 6a1 1 0 0 1 0 1.78zm17.55 14.11h-6v-2h6zm0-3h-4v-2h4zm0-3h-2v-2h2z"/></g></svg>