<?xml version="1.0"?>
<svg xmlns="http://www.w3.org/2000/svg" viewBox="0 0 64 64" width="512" height="512"><g id="Consult-Talk"><path d="M19,37.574V39a3,3,0,0,0,6,0V37.574a10.776,10.776,0,0,1-6,0Z"/><path d="M27,21l-1.18-1.57-2.55,2.04A7.023,7.023,0,0,1,18.9,23H13v4a9.014,9.014,0,0,0,9,9,8.914,8.914,0,0,0,5.64-2H22V32h7.48A8.94,8.94,0,0,0,31,27V23A5.025,5.025,0,0,1,27,21Zm-9,6H16V25h2Zm10,0H26V25h2Z"/><path d="M50.147,27.422,52,26.033V14.74a1,1,0,0,1,.429-.821A6,6,0,0,0,53,4.522V9a1,1,0,0,1-.684.949l-3,1a1,1,0,0,1-.632,0l-3-1A1,1,0,0,1,45,9V4.522a6,6,0,0,0,.571,9.4A1,1,0,0,1,46,14.74V22h1a1,1,0,0,1,.99.858l.01.072V15h2V27.362C50.047,27.384,50.1,27.4,50.147,27.422Z"/><path d="M55.51,43.37a.987.987,0,0,1,.82-.71L60,42.13V37.87l-3.67-.53a.987.987,0,0,1-.82-.71,11.78,11.78,0,0,0-.99-2.39,1.046,1.046,0,0,1,.08-1.09l2.22-2.96-3.01-3.01L50.85,29.4a1.025,1.025,0,0,1-1.09.08,11.78,11.78,0,0,0-2.39-.99.987.987,0,0,1-.71-.82L46.13,24H41.87l-.53,3.67-.99-.14a12.589,12.589,0,0,0-2.6,1.07l-.64-.48a3.128,3.128,0,0,1-1.11.7V31a3.009,3.009,0,0,1-3,3h-.52a12.3,12.3,0,0,0-.95,2.35L28,36.86v1.86l2,.8V39h2v1.32l3.09,1.24a.488.488,0,0,0,.07.03A8.4,8.4,0,0,1,35,40a9,9,0,1,1,9,9,8.793,8.793,0,0,1-2.45-.35A11.153,11.153,0,0,1,42,51.77V56h4.13l.53-3.67a.987.987,0,0,1,.71-.82,11.78,11.78,0,0,0,2.39-.99,1.046,1.046,0,0,1,1.09.08l2.96,2.22,3.01-3.01L54.6,46.85a1.046,1.046,0,0,1-.08-1.09A11.78,11.78,0,0,0,55.51,43.37ZM56,39h2v2H56ZM45,28H43V26h2Zm0,26H43V52h2Zm9.61-4.81-1.42,1.42-1.41-1.42,1.41-1.41ZM53.19,32.22l-1.41-1.41,1.41-1.42,1.42,1.42Z"/><path d="M40,60V51.771a8.958,8.958,0,0,0-5.658-8.357l-7.563-3.025a4.968,4.968,0,0,1-9.558,0L9.658,43.414A8.958,8.958,0,0,0,4,51.771V60h6V49h2V60H32V49h2V60Z"/><path d="M36,26V23a1,1,0,0,0-1-1H33v5h2A1,1,0,0,0,36,26Z"/><path d="M22,11a9.011,9.011,0,0,0-9,9v1h5.9a5.018,5.018,0,0,0,3.123-1.1l3.356-2.685a1.011,1.011,0,0,1,.751-.211,1,1,0,0,1,.674.392l1.8,2.4A3.015,3.015,0,0,0,31,21V20A9.011,9.011,0,0,0,22,11Z"/><path d="M44,47a7,7,0,1,0-7-7,6.836,6.836,0,0,0,.722,3.064,10.916,10.916,0,0,1,2.611,2.877A6.947,6.947,0,0,0,44,47Z"/><path d="M8,23v3a1,1,0,0,0,1,1h2V22H9A1,1,0,0,0,8,23Z"/><path d="M34,31V29H33c-.064,0-.126-.01-.189-.014A10.9,10.9,0,0,1,31.786,32H33A1,1,0,0,0,34,31Z"/><path d="M36,20H34V19a12,12,0,0,0-24,0v1H8V19a14,14,0,0,1,28,0Z"/></g></svg>
